<svg xmlns="http://www.w3.org/2000/svg" width="74" height="74" fill="none"><g clip-path="url(#a)"><path fill="#4D5AE5" d="M34.515 34.606h2.466V45.7h-2.466V34.606ZM44.377 39.536h2.465V45.7h-2.465v-6.164ZM24.654 43.234h2.465V45.7h-2.465v-2.466ZM17.258 42.002h2.465V45.7h-2.465v-3.698Z"/><path fill="#2E2F42" d="M3.698 65.423h59.17a3.698 3.698 0 0 0 3.697-3.698v-4.93a3.698 3.698 0 0 0-3.698-3.699h-1.233v-30.74l7.002-6.634a3.719 3.719 0 1 0-1.726-1.764l-5.276 5.001v-2.844a3.698 3.698 0 0 0-3.698-3.698H8.63a3.698 3.698 0 0 0-3.698 3.698v36.981H3.698A3.698 3.698 0 0 0 0 56.794v4.93a3.698 3.698 0 0 0 3.698 3.699Zm66.565-54.238a1.233 1.233 0 1 1 0 2.465 1.233 1.233 0 0 1 0-2.465Zm-62.867 4.93c0-.68.552-1.232 1.233-1.232h49.307c.681 0 1.233.552 1.233 1.232v5.177l-2.465 2.343V18.58c0-.681-.552-1.233-1.233-1.233H11.094c-.68 0-1.232.552-1.232 1.233v30.817c0 .68.551 1.233 1.232 1.233h44.377c.68 0 1.233-.552 1.233-1.233V27.026l2.465-2.336v28.406H7.396v-36.98ZM18.49 32.14a3.698 3.698 0 1 0 2.56 6.356l4.286 2.15c.498.249 1.101.132 1.471-.284l9.109-10.247 8.954 6.71c.48.36 1.15.32 1.586-.092l7.782-7.371v18.803H12.327V19.813h41.911v6.152l-8.721 8.26-9.03-6.77a1.234 1.234 0 0 0-1.66.167l-9.234 10.39-3.452-1.726c.026-.148.041-.298.047-.448a3.698 3.698 0 0 0-3.698-3.698Zm1.233 3.698a1.233 1.233 0 1 1-2.465 0 1.233 1.233 0 0 1 2.465 0Zm7.396 19.723h12.327v1.233c0 .68-.552 1.233-1.233 1.233h-9.861c-.68 0-1.233-.552-1.233-1.233v-1.233ZM2.465 56.794c0-.68.552-1.233 1.233-1.233h20.956v1.233a3.698 3.698 0 0 0 3.698 3.698h9.861a3.698 3.698 0 0 0 3.698-3.698v-1.233h20.956c.68 0 1.233.552 1.233 1.233v4.93c0 .682-.552 1.234-1.233 1.234H3.698c-.68 0-1.233-.552-1.233-1.233v-4.93Z"/></g><defs><clipPath id="a"><path fill="#fff" d="M0 0h74v74H0z"/></clipPath></defs></svg>